# AST/ASF file generated using VICON BodyLanguage
# -----------------------------------------------
:version 1.10
:name VICON
:units
  mass 1.0
  length 0.45
  angle deg
:documentation
   .ast/.asf automatically generated from VICON data using
   VICON BodyBuilder and BodyLanguage model FoxedUp or BRILLIANT.MOD
:root
   order TX TY TZ RX RY RZ
   axis XYZ
   position 0 0 0  
   orientation 0 0 0 
:bonedata
  begin
     id 1 
     name lhipjoint
     direction 0.440178 -0.822639 0.359871 
     length 2.53113 
     axis 0 0 0  XYZ
  end
  begin
     id 2 
     name lfemur
     direction 0.34202 -0.939693 0  
     length 7.88132  
     axis 0 0 20  XYZ
    dof rx ry rz
    limits (-160.0 20.0)
           (-70.0 70.0)
           (-60.0 70.0)
  end
  begin
     id 3 
     name ltibia
     direction 0.34202 -0.939693 0   
     length 8.43783   
     axis 0 0 20   XYZ
    dof rx
    limits (-10.0 170.0)
  end
  begin
     id 4 
     name lfoot
     direction 0.0886351 -0.243523 0.965837   
     length 2.63414   
     axis -90 7.62852e-016 20   XYZ
    dof rx rz
    limits (-45.0 90.0)
           (-70.0 20.0)
  end
  begin
     id 5 
     name ltoes
     direction 1.53703e-011 -4.21717e-011 1   
     length 1.31427   
     axis -90 7.62852e-016 20   XYZ
    dof rx
    limits (-90.0 20.0)
  end
  begin
     id 6 
     name rhipjoint
     direction -0.399779 -0.839773 0.367367   
     length 2.47948  
     axis 0 0 0  XYZ 
  end
  begin
     id 7 
     name rfemur
     direction -0.34202 -0.939693 0   
     length 7.74806   
     axis 0 0 -20   XYZ
    dof rx ry rz
    limits (-160.0 20.0)
           (-70.0 70.0)
           (-70.0 60.0)
  end
  begin
     id 8 
     name rtibia
     direction -0.34202 -0.939693 0   
     length 8.74432   
     axis 0 0 -20   XYZ
    dof rx
    limits (-10.0 170.0)
 end
 begin
     id 9 
     name rfoot
     direction -0.108514 -0.298139 0.948334   
     length 2.66102  
     axis -90 -7.62852e-016 -20   XYZ
    dof rx rz
    limits (-45.0 90.0)
           (-20.0 70.0)
  end
  begin
     id 10 
     name rtoes
     direction -1.53392e-011 -4.22077e-011 1   
     length 1.31983   
     axis -90 -7.62852e-016 -20   XYZ
    dof rx
    limits (-90.0 20.0)
  end
  begin
     id 11 
     name lowerback
     direction 0.0113257 0.999866 0.0118602   
     length 2.58694   
     axis 0 0 0   XYZ
    dof rx ry rz
    limits (-20.0 45.0)
           (-30.0 30.0)
           (-30.0 30.0)
  end
  begin
     id 12 
     name upperback
     direction -0.0164747 0.995193 -0.0965375   
     length 2.52368   
     axis 0 0 0   XYZ
    dof rx ry rz
    limits (-20.0 45.0)
           (-30.0 30.0)
           (-30.0 30.0)
  end
  begin
     id 13 
     name thorax
     direction -0.0194301 0.99433 -0.104552   
     length 2.56099   
     axis 0 0 0   XYZ
    dof rx ry rz
    limits (-20.0 45.0)
           (-30.0 30.0)
           (-30.0 30.0)
  end
  begin
     id 14 
     name lowerneck
     direction 0.0148543 0.995587 -0.092657   
     length 1.71582   
     axis 0 0 0   XYZ
    dof rx ry rz
    limits (-20.0 45.0)
           (-30.0 30.0)
           (-30.0 30.0)
  end
  begin
     id 15 
     name upperneck
     direction -0.0135467 0.993656 -0.111639   
     length 1.68937   
     axis 0 0 0   XYZ
    dof rx ry rz
    limits (-20.0 45.0)
           (-30.0 30.0)
           (-30.0 30.0)
  end
  begin
     id 16
     name head
     direction -0.00615349 0.999547 -0.029448  
     length 1.7462  
     axis 0 0 0   XYZ
    dof rx ry rz
    limits (-20.0 45.0)
           (-30.0 30.0)
           (-30.0 30.0)
  end
  begin
     id 17 
     name lclavicle
     direction 0.988267 0.149885 0.0293713  
     length 4.47222  
     axis 0 0 0   XYZ
    dof ry rz
    limits (-20.0 10.0)
           (0.0 20.0)
  end
  begin
     id 18 
     name lhumerus
     direction 1 -4.48986e-011 -1.14833e-027   
     length 5.37148   
     axis 180 -30 -90   XYZ
    dof rx ry rz
    limits (-60.0 90.0)
           (-90.0 90.0)
           (-90.0 90.0)
  end
  begin
     id 19
     name lradius
     direction 0.999998 0.00170963 -0.000987055   
     length 3.94212   
     axis 180 -30 -90   XYZ
    dof rx
    limits (-10.0 170.0)
  end
  begin
     id 20
     name lwrist
     direction 0.999998 7.53149e-005 -0.00194706   
     length 1.97106   
     axis 4.65056e-015 90 90   XYZ
    dof ry
    limits (-180.0 0.0)
 end
  begin
     id 21 
     name lhand
     direction 1 -4.48973e-011 -1.31746e-026   
     length 1.17917   
     axis 8.4065e-015 90 90   XYZ
    dof rx rz
    limits (-90.0 90.0)
           (-45.0 45.0)
  end
  begin
     id 22 
     name lfingers
     direction 1 -4.49107e-011 -2.63492e-026   
     length 0.950679   
     axis 1.6813e-014 90 90   XYZ
    dof rx
    limits (0.0 90.0)
  end
  begin
     id 23
     name lthumb
     direction 0.707107 -6.35048e-011 0.707107   
     length 1.36499   
     axis -90 45 2.85299e-015   XYZ
    dof rx rz
    limits (-45.0 45.0)
           (-45.0 45.0)
  end
  begin
     id 24 
     name rclavicle
     direction -0.996699 0.0642895 -0.0495725   
     length 4.62611  
     axis 0 0 0   XYZ 
    dof ry rz
    limits (-10.0 20.0)
           (-20.0 0.0)
  end
  begin
     id 25 
     name rhumerus
     direction -1 -4.48919e-011 -2.41059e-027  
     length 5.4981   
     axis 180 30 90   XYZ
    dof rx ry rz
    limits (-90.0 60.0)
           (-90.0 90.0)
           (-90.0 90.0)
  end
  begin
     id 26 
     name rradius
     direction -0.999999 0.00118101 -0.000681858   
     length 3.48381   
     axis 180 30 90   XYZ
    dof rx
    limits (-10.0 170.0)
  end
  begin
     id 27 
     name rwrist
     direction -0.999999 0.000321823 -0.00132288   
     length 1.7419   
     axis 4.65056e-015 -90 -90   XYZ
    dof ry
    limits (-180.0 0.0)
  end
  begin
     id 28
     name rhand
     direction -1 -4.49022e-011 -1.31746e-026   
     length 1.34932   
     axis 8.4065e-015 -90 -90   XYZ
    dof rx rz
    limits (-90.0 90.0)
           (-45.0 45.0)
  end
  begin
     id 29
     name rfingers
     direction -1 -4.49178e-011 -2.63492e-026   
     length 1.08785   
     axis 1.6813e-014 -90 -90   XYZ
    dof rx
    limits (0.0 90.0)
  end
  begin
     id 30
     name rthumb
     direction -0.707107 -6.34713e-011 0.707107   
     length 1.56195   
     axis -90 -45 -2.85299e-015   XYZ
    dof rx rz
    limits (-45.0 45.0)
           (-45.0 45.0)
  end
:hierarchy
  begin
    root lhipjoint rhipjoint lowerback
    lhipjoint lfemur
    lfemur ltibia
    ltibia lfoot
    lfoot ltoes
    rhipjoint rfemur
    rfemur rtibia
    rtibia rfoot
    rfoot rtoes
    lowerback upperback
    upperback thorax
    thorax lowerneck lclavicle rclavicle
    lowerneck upperneck
    upperneck head
    lclavicle lhumerus
    lhumerus lradius
    lradius lwrist
    lwrist lhand lthumb
    lhand lfingers
    rclavicle rhumerus
    rhumerus rradius
    rradius rwrist
    rwrist rhand rthumb
    rhand rfingers
  end

#!OML:ASF X:\für Bonn\!DataBase\2005_08_10_Bjorn_Final\c3d\bjorn.ASF
:FULLY-SPECIFIED
:DEGREES
1
root -22.5379 19.1377 -30.0757 -355.161 368.069 -361.893
lowerback -7.85585 2.5144 1.57062
upperback 7.86818 3.33423 -1.08933
thorax 13.1678 1.80272 -1.43371
lowerneck -0.605024 0.133292 0.958706
upperneck 12.7362 0.511145 -2.99058
head 4.30332 0.178909 -1.15242
rclavicle -2.8625e-014 1.31198e-014
rhumerus -20.5616 -15.4692 -90.7254
rradius 29.6592
rwrist 5.58442
rhand -12.4479 13.7492
rfingers 7.12502
rthumb 13.6254 -15.7849
lclavicle -2.8625e-014 1.31198e-014
lhumerus -34.2648 -14.2183 91.0357
lradius 36.7293
lwrist -21.0156
lhand -16.345 -12.9475
lfingers 7.12502
lthumb 9.86735 16.8013
rfemur -11.2942 -13.3109 19.681
rtibia 30.8533
rfoot -18.8027 20.8703
rtoes -1.25392
lfemur -15.2005 2.97213 -19.5743
ltibia 34.9098
lfoot -19.2792 -7.32448
ltoes -1.56424
2
root -22.5315 19.1321 -30.0399 -355.132 367.904 -361.886
lowerback -7.89901 2.46514 1.41586
upperback 7.88742 3.288 -1.08435
thorax 13.204 1.76582 -1.34868
lowerneck -0.694691 0.160916 0.849501
upperneck 12.74 0.555929 -3.01958
head 4.32304 0.19347 -1.14152
rclavicle 1.15295e-014 -1.59028e-014
rhumerus -20.7019 -15.3818 -90.7832
rradius 29.5244
rwrist 5.66468
rhand -12.5712 13.6661
rfingers 7.12502
rthumb 13.5065 -15.8759
lclavicle 1.15295e-014 -1.59028e-014
lhumerus -34.1973 -14.1363 91.1941
lradius 36.581
lwrist -21.2188
lhand -16.1467 -12.8214
lfingers 7.12502
lthumb 10.0587 16.9182
rfemur -11.2 -12.9144 19.6792
rtibia 30.8551
rfoot -19.0645 20.559
rtoes -1.59275
lfemur -15.0824 3.19938 -19.5852
ltibia 34.8889
lfoot -19.3532 -7.44385
ltoes -1.54016
3
root -22.5239 19.1271 -30.0046 -355.1 367.764 -361.908
lowerback -7.94969 2.41752 1.32209
upperback 7.92138 3.23898 -1.10558
thorax 13.2684 1.73519 -1.32644
lowerneck -0.804461 0.184896 0.789453
upperneck 12.7204 0.58692 -2.99687
head 4.33774 0.205717 -1.12223
rclavicle -3.88624e-014 3.06128e-014
rhumerus -20.813 -15.3222 -90.8944
rradius 29.4001
rwrist 5.73892
rhand -12.6627 13.5909
rfingers 7.12502
rthumb 13.4183 -15.957
lclavicle -3.88624e-014 3.06128e-014
lhumerus -34.0829 -14.1505 91.2974
lradius 36.4696
lwrist -21.3381
lhand -16.1141 -12.6597
lfingers 7.12502
lthumb 10.0901 17.0783
rfemur -11.108 -12.4749 19.7092
rtibia 30.8555
rfoot -19.3136 20.2174
rtoes -1.96771
lfemur -14.9691 3.39609 -19.5666
ltibia 34.8713
lfoot -19.3954 -7.56005
ltoes -1.34797
4
root -22.5166 19.1223 -29.9685 -355.075 367.603 -361.923
lowerback -7.98465 2.37023 1.21485
upperback 7.94781 3.19332 -1.13473
thorax 13.3142 1.70526 -1.3056
lowerneck -0.920204 0.225611 0.747474
upperneck 12.735 0.642617 -2.99153
head 4.36695 0.229956 -1.11137
rclavicle -1.8487e-014 2.5842e-014
rhumerus -20.9618 -15.2941 -91.0028
rradius 29.2638
rwrist 5.90595
rhand -12.6691 13.6314
rfingers 7.12502
rthumb 13.4121 -15.9169
lclavicle -1.8487e-014 2.5842e-014
lhumerus -34.0193 -14.1695 91.3955
lradius 36.4114
lwrist -21.3334
lhand -16.1484 -12.5358
lfingers 7.12502
lthumb 10.057 17.2039
rfemur -11.0046 -12.1091 19.7249
rtibia 30.8468
rfoot -19.5109 19.9444
rtoes -2.3
lfemur -14.8469 3.62862 -19.5606
ltibia 34.8632
lfoot -19.4708 -7.61056
ltoes -1.43932
5
root -22.509 19.1158 -29.9322 -355.047 367.462 -361.922
lowerback -8.01373 2.30855 1.07207
upperback 7.96947 3.13187 -1.15247
thorax 13.3472 1.66365 -1.25587
lowerneck -0.953168 0.269175 0.67944
upperneck 12.6775 0.70081 -2.97982
head 4.35328 0.255567 -1.09255
rclavicle 4.17448e-014 1.51076e-014
rhumerus -21.1292 -15.1437 -91.109
rradius 29.1299
rwrist 6.02608
rhand -12.6568 13.6238
rfingers 7.12502
rthumb 13.4241 -15.9236
lclavicle 4.17448e-014 1.51076e-014
lhumerus -33.9603 -14.2084 91.5245
lradius 36.37
lwrist -21.2847
lhand -16.2371 -12.3407
lfingers 7.12502
lthumb 9.97145 17.4031
rfemur -10.8973 -11.711 19.7302
rtibia 30.8379
rfoot -19.7529 19.6066
rtoes -2.71349
lfemur -14.7303 3.86873 -19.5632
ltibia 34.8607
lfoot -19.5053 -7.76253
ltoes -1.37144
6
root -22.5019 19.1112 -29.8961 -355.026 367.312 -361.958
lowerback -8.00201 2.27078 0.985265
upperback 7.97425 3.09735 -1.19128
thorax 13.3412 1.64144 -1.25713
lowerneck -0.982631 0.301574 0.679712
upperneck 12.6403 0.738629 -2.94571
head 4.34611 0.275307 -1.07931
rclavicle 1.07344e-014 -1.39149e-014
rhumerus -21.3421 -15.1966 -91.2145
rradius 29.0124
rwrist 6.30053
rhand -12.5524 13.6888
rfingers 7.12502
rthumb 13.5246 -15.852
lclavicle 1.07344e-014 -1.39149e-014
lhumerus -33.9299 -14.2882 91.5908
lradius 36.3573
lwrist -21.2316
lhand -16.2866 -12.1889
lfingers 7.12502
lthumb 9.92366 17.5572
rfemur -10.7918 -11.198 19.7832
rtibia 30.8294
rfoot -19.9596 19.215
rtoes -3.03929
lfemur -14.6157 4.05887 -19.5288
ltibia 34.8592
lfoot -19.5633 -7.84538
ltoes -1.25987
7
root -22.4938 19.1047 -29.8594 -355.008 367.173 -361.955
lowerback -7.97155 2.22137 0.869254
upperback 7.96709 3.05349 -1.25192
thorax 13.3088 1.61338 -1.26872
lowerneck -0.963827 0.345021 0.691065
upperneck 12.5838 0.788855 -2.89985
head 4.32261 0.302665 -1.06326
rclavicle -2.18663e-014 1.63003e-014
rhumerus -21.5855 -15.1383 -91.3458
rradius 28.8797
rwrist 6.5046
rhand -12.4695 13.7656
rfingers 7.12502
rthumb 13.6045 -15.7698
lclavicle -2.18663e-014 1.63003e-014
lhumerus -33.9069 -14.3962 91.6585
lradius 36.3322
lwrist -21.071
lhand -16.386 -11.9758
lfingers 7.12502
lthumb 9.8278 17.7749
rfemur -10.6716 -10.8036 19.7849
rtibia 30.8182
rfoot -20.1631 18.8933
rtoes -3.45892
lfemur -14.4914 4.28741 -19.5337
ltibia 34.864
lfoot -19.5935 -7.99843
ltoes -0.969153
8
root -22.4861 19.0981 -29.8214 -355.005 366.998 -361.971
lowerback -7.89792 2.20154 0.80929
upperback 7.94683 3.04593 -1.35037
thorax 13.2417 1.6103 -1.3477
lowerneck -0.94285 0.378978 0.788814
upperneck 12.5588 0.821789 -2.84378
head 4.31029 0.325812 -1.06014
rclavicle -1.98785e-015 -1.59028e-014
rhumerus -21.8637 -15.2532 -91.5055
rradius 28.7389
rwrist 6.84705
rhand -12.3882 13.7925
rfingers 7.12502
rthumb 13.6829 -15.7377
lclavicle -1.98785e-015 -1.59028e-014
lhumerus -33.9189 -14.6209 91.6791
lradius 36.3415
lwrist -20.8533
lhand -16.4466 -11.7796
lfingers 7.12502
lthumb 9.76931 17.9738
rfemur -10.5369 -10.3329 19.8059
rtibia 30.815
rfoot -20.384 18.5231
rtoes -3.77812
lfemur -14.3407 4.46664 -19.5244
ltibia 34.8715
lfoot -19.6741 -8.05636
ltoes -0.812327
9
root -22.4786 19.091 -29.7839 -355.003 366.845 -361.991
lowerback -7.81561 2.16207 0.717888
upperback 7.91852 3.0126 -1.42299
thorax 13.155 1.5903 -1.38604
lowerneck -0.863157 0.417909 0.848809
upperneck 12.4992 0.864272 -2.80243
head 4.27397 0.351865 -1.05447
rclavicle -2.38542e-014 1.98785e-014
rhumerus -22.1766 -15.2624 -91.6374
rradius 28.6272
rwrist 7.13089
rhand -12.2922 13.8092
rfingers 7.12502
rthumb 13.7754 -15.7148
lclavicle -2.38542e-014 1.98785e-014
lhumerus -33.9335 -14.7611 91.7059
lradius 36.327
lwrist -20.6584
lhand -16.5524 -11.6327
lfingers 7.12502
lthumb 9.66721 18.1255
rfemur -10.3988 -9.84122 19.8358
rtibia 30.8131
rfoot -20.6136 18.1635
rtoes -3.99482
lfemur -14.2018 4.71067 -19.5009
ltibia 34.8884
lfoot -19.7548 -8.21543
ltoes -0.723414
10
root -22.4701 19.0833 -29.7461 -355 366.685 -362.008
lowerback -7.76276 2.13329 0.626866
upperback 7.92615 2.99422 -1.4939
thorax 13.1295 1.57755 -1.41812
lowerneck -0.875565 0.44758 0.917241
upperneck 12.4467 0.8948 -2.7687
head 4.25831 0.371297 -1.05367
rclavicle -1.92821e-014 -2.06736e-014
rhumerus -22.4232 -15.2634 -91.7657
rradius 28.4884
rwrist 7.3939
rhand -12.1973 13.8278
rfingers 7.12502
rthumb 13.8669 -15.6899
lclavicle -1.92821e-014 -2.06736e-014
lhumerus -33.8535 -14.971 91.7372
lradius 36.2965
lwrist -20.4286
lhand -16.6377 -11.4769
lfingers 7.12502
lthumb 9.58487 18.285
rfemur -10.2724 -9.38754 19.8602
rtibia 30.8239
rfoot -20.8927 17.7871
rtoes -4.52865
lfemur -14.0532 4.84023 -19.4868
ltibia 34.9042
lfoot -19.8656 -8.28001
ltoes -0.473477
11
root -22.4624 19.0764 -29.707 -355.009 366.51 -362.012
lowerback -7.6983 2.10325 0.519881
upperback 7.9348 2.97759 -1.57714
thorax 13.098 1.56493 -1.45477
lowerneck -0.83878 0.478981 0.941131
upperneck 12.3479 0.923719 -2.68884
head 4.2153 0.390445 -1.02902
rclavicle 2.70347e-014 -2.78299e-014
rhumerus -22.6837 -15.3635 -91.8867
rradius 28.3376
rwrist 7.77108
rhand -12.0856 13.8812
rfingers 7.12502
rthumb 13.9745 -15.6291
lclavicle 2.70347e-014 -2.78299e-014
lhumerus -33.7663 -15.1338 91.7349
lradius 36.2488
lwrist -20.2267
lhand -16.7458 -11.3632
lfingers 7.12502
lthumb 9.48057 18.4035
rfemur -10.1275 -8.91341 19.8636
rtibia 30.8441
rfoot -21.1586 17.4499
rtoes -4.69239
lfemur -13.8923 5.09371 -19.4836
ltibia 34.9218
lfoot -19.9552 -8.42103
ltoes -0.281682
12
root -22.4539 19.0699 -29.668 -355.002 366.349 -362.05
lowerback -7.6637 2.08261 0.462212
upperback 7.9523 2.96697 -1.65832
thorax 13.0985 1.55971 -1.51447
lowerneck -0.790935 0.50115 1.00481
upperneck 12.2309 0.940672 -2.63171
head 4.16398 0.404634 -1.01948
rclavicle 5.96354e-016 -7.95139e-016
rhumerus -22.9241 -15.344 -92.0264
rradius 28.2171
rwrist 7.97852
rhand -11.9769 13.9261
rfingers 7.12502
rthumb 14.0792 -15.577
lclavicle 5.96354e-016 -7.95139e-016
lhumerus -33.6513 -15.3684 91.727
lradius 36.2102
lwrist -19.9767
lhand -16.9018 -11.243
lfingers 7.12502
lthumb 9.3301 18.5305
rfemur -10.0261 -8.47174 19.9137
rtibia 30.8876
rfoot -21.4653 17.0956
rtoes -5.0444
lfemur -13.749 5.23287 -19.446
ltibia 34.9313
lfoot -20.0462 -8.49212
ltoes -0.172675
